<svg width="24" height="24" viewBox="0 0 24 24" fill="none" xmlns="http://www.w3.org/2000/svg">
<path d="M16.3011 5.74875C16.7938 5.75552 17.2802 5.86144 17.7312 6.06019C18.1822 6.25894 18.5886 6.54647 18.9261 6.90563C18.9261 6.90563 20.3586 6.62437 21.1498 6.0675C21.1498 6.0675 20.9511 7.17 19.6329 8.01375H19.6442C19.7454 8.01375 20.4842 7.995 21.6467 7.45125C21.6467 7.45125 21.4236 8.08687 19.9029 9.29625C19.9948 12.1575 18.5792 17.4469 13.3404 19.3294C12.1899 19.7503 10.9749 19.9678 9.74981 19.9725C7.787 19.9815 5.86439 19.4164 4.21856 18.3469C4.49981 18.375 4.75293 18.375 5.00606 18.375C8.10356 18.375 9.60356 16.785 9.52106 16.785H9.40668C6.78168 16.785 6.14231 14.2725 6.14231 14.2725C6.35255 14.3996 6.59645 14.4598 6.84168 14.445C7.15865 14.4384 7.47356 14.3924 7.77918 14.3081C4.81668 13.6069 4.92731 10.7644 4.92731 10.7644C5.32766 11.0316 5.79609 11.1786 6.27731 11.1881C6.35647 11.189 6.43554 11.1827 6.51356 11.1694C3.80793 9.02812 5.43731 6.4725 5.43731 6.4725C8.48606 10.0106 12.2342 10.1362 12.7498 10.1362H12.8117C12.5342 8.475 13.2186 6.87937 15.0617 6.01125C15.4462 5.83468 15.8649 5.74506 16.2879 5.74875H16.3011ZM22.8748 3.375L20.4504 5.0775C20.0801 5.29944 19.6798 5.46681 19.2617 5.57437C18.4131 4.91177 17.3701 4.54674 16.2936 4.53562C15.6917 4.53006 15.0961 4.65814 14.5498 4.91062C12.8286 5.71875 11.7823 7.11375 11.5742 8.78812C9.53647 8.36786 7.70041 7.27177 6.36356 5.6775L5.29481 4.43812L4.41356 5.8125C3.84543 6.74839 3.62009 7.85257 3.77606 8.93625L3.70668 10.7231C3.69112 11.8574 4.06801 12.9623 4.77356 13.8506L4.96106 14.5819C5.22999 15.5262 5.77602 16.3681 6.52856 16.9987C6.02789 17.1083 5.51667 17.1624 5.00418 17.16C4.78106 17.16 4.55043 17.1506 4.31793 17.1319L0.0185547 16.7737L3.49668 19.3294C5.3528 20.5506 7.52801 21.1969 9.74981 21.1875C11.1172 21.1837 12.4736 20.9428 13.7586 20.475C16.3362 19.5551 18.4633 17.6823 19.7023 15.2419C20.5594 13.5754 21.0437 11.7424 21.1217 9.87C22.3648 8.79937 22.7061 8.11687 22.7979 7.85625L23.7579 5.12437L22.4454 5.73562L22.8748 3.375Z" fill="#121212"/>
</svg>
