<svg width="24" height="24" viewBox="0 0 24 24" fill="none" xmlns="http://www.w3.org/2000/svg">
<path d="M13.2868 11.988C13.2868 15.4007 10.539 18.1673 7.14962 18.1673C3.76022 18.1673 1.01221 15.4007 1.01221 11.988C1.01221 8.57524 3.76001 5.80847 7.14962 5.80847C10.5392 5.80847 13.2868 8.57524 13.2868 11.988Z" fill="#121212"/>
<path d="M20.0197 11.988C20.0197 15.2004 18.6458 17.8055 16.951 17.8055C15.2562 17.8055 13.8823 15.2004 13.8823 11.988C13.8823 8.77562 15.256 6.17044 16.9508 6.17044C18.6456 6.17044 20.0195 8.77479 20.0195 11.988" fill="#121212"/>
<path d="M22.7735 11.988C22.7735 14.8655 22.2904 17.1996 21.6943 17.1996C21.0981 17.1996 20.6152 14.8661 20.6152 11.988C20.6152 9.10986 21.0983 6.77637 21.6943 6.77637C22.2902 6.77637 22.7735 9.10965 22.7735 11.988Z" fill="#121212"/>
</svg>
