<svg width="24" height="24" viewBox="0 0 24 24" fill="none" xmlns="http://www.w3.org/2000/svg">
<path d="M15.5625 4.3125C16.6565 4.3125 17.7057 4.74711 18.4793 5.52069C19.2529 6.29428 19.6875 7.34347 19.6875 8.4375V15.5625C19.6875 16.6565 19.2529 17.7057 18.4793 18.4793C17.7057 19.2529 16.6565 19.6875 15.5625 19.6875H8.4375C7.34347 19.6875 6.29428 19.2529 5.52069 18.4793C4.74711 17.7057 4.3125 16.6565 4.3125 15.5625V8.4375C4.3125 7.34347 4.74711 6.29428 5.52069 5.52069C6.29428 4.74711 7.34347 4.3125 8.4375 4.3125H15.5625ZM15.5625 2.8125H8.4375C6.94702 2.81694 5.51887 3.41102 4.46494 4.46494C3.41102 5.51887 2.81694 6.94702 2.8125 8.4375V15.5625C2.81694 17.053 3.41102 18.4811 4.46494 19.5351C5.51887 20.589 6.94702 21.183 8.4375 21.1875H15.5625C17.053 21.183 18.4811 20.589 19.5351 19.5351C20.589 18.4811 21.183 17.053 21.1875 15.5625V8.4375C21.183 6.94702 20.589 5.51887 19.5351 4.46494C18.4811 3.41102 17.053 2.81694 15.5625 2.8125Z" fill="#121212"/>
<path d="M16.901 6C16.6885 6 16.4808 6.06302 16.3041 6.18107C16.1275 6.29912 15.9898 6.46691 15.9084 6.66323C15.8271 6.85954 15.8058 7.07558 15.8473 7.28398C15.8888 7.49239 15.9911 7.68383 16.1413 7.83407C16.2916 7.98433 16.483 8.08665 16.6914 8.12811C16.8998 8.16956 17.1159 8.14828 17.3122 8.06696C17.5085 7.98564 17.6763 7.84794 17.7943 7.67126C17.9124 7.49458 17.9754 7.28687 17.9754 7.07438C17.9754 6.93328 17.9476 6.79358 17.8936 6.66323C17.8396 6.53288 17.7605 6.41445 17.6607 6.31468C17.561 6.21491 17.4425 6.13577 17.3122 6.08179C17.1818 6.02779 17.0421 6 16.901 6Z" fill="#121212"/>
<path d="M12.0507 8.71311C12.7065 8.71274 13.3477 8.90689 13.8932 9.271C14.4386 9.63513 14.8638 10.1528 15.1149 10.7586C15.3661 11.3645 15.4319 12.0312 15.304 12.6744C15.1762 13.3176 14.8604 13.9084 14.3967 14.3722C13.9329 14.8359 13.3421 15.1517 12.6989 15.2795C12.0557 15.4074 11.389 15.3416 10.7831 15.0904C10.1773 14.8393 9.65963 14.4141 9.2955 13.8687C8.9314 13.3232 8.73724 12.682 8.73762 12.0262C8.7391 11.148 9.08863 10.3062 9.70965 9.68515C10.3307 9.06413 11.1725 8.71459 12.0507 8.71311ZM12.0507 7.21311C11.0987 7.21497 10.1687 7.49898 9.37804 8.02926C8.58741 8.55955 7.97172 9.31231 7.60877 10.1924C7.24583 11.0725 7.15193 12.0405 7.33892 12.9739C7.52592 13.9074 7.98542 14.7644 8.65937 15.4368C9.33332 16.1092 10.1915 16.5667 11.1254 16.7515C12.0592 16.9363 13.0269 16.8402 13.9062 16.4751C14.7854 16.1102 15.5368 15.4927 16.0652 14.7009C16.5936 13.909 16.8755 12.9782 16.8751 12.0262C16.8749 11.3933 16.7498 10.7666 16.5072 10.182C16.2645 9.59744 15.9089 9.06646 15.4609 8.61942C15.0128 8.17238 14.4809 7.81806 13.8958 7.57675C13.3107 7.33546 12.6837 7.21188 12.0507 7.21311Z" fill="#121212"/>
</svg>
