<svg width="24" height="24" viewBox="0 0 24 24" fill="none" xmlns="http://www.w3.org/2000/svg">
<path d="M15.5625 4.3125C16.6565 4.3125 17.7057 4.74711 18.4793 5.52069C19.2529 6.29428 19.6875 7.34347 19.6875 8.4375V15.5625C19.6875 16.6565 19.2529 17.7057 18.4793 18.4793C17.7057 19.2529 16.6565 19.6875 15.5625 19.6875H8.4375C7.34347 19.6875 6.29428 19.2529 5.52069 18.4793C4.74711 17.7057 4.3125 16.6565 4.3125 15.5625V8.4375C4.3125 7.34347 4.74711 6.29428 5.52069 5.52069C6.29428 4.74711 7.34347 4.3125 8.4375 4.3125H15.5625ZM15.5625 2.8125H8.4375C6.94702 2.81694 5.51887 3.41102 4.46494 4.46494C3.41102 5.51887 2.81694 6.94702 2.8125 8.4375V15.5625C2.81694 17.053 3.41102 18.4811 4.46494 19.5351C5.51887 20.589 6.94702 21.183 8.4375 21.1875H15.5625C17.053 21.183 18.4811 20.589 19.5351 19.5351C20.589 18.4811 21.183 17.053 21.1875 15.5625V8.4375C21.183 6.94702 20.589 5.51887 19.5351 4.46494C18.4811 3.41102 17.053 2.81694 15.5625 2.8125Z" fill="white"/>
<path d="M16.9013 6C16.6888 6 16.4811 6.06302 16.3044 6.18107C16.1277 6.29912 15.99 6.46691 15.9087 6.66323C15.8274 6.85954 15.8061 7.07558 15.8475 7.28398C15.889 7.49239 15.9913 7.68383 16.1416 7.83407C16.2918 7.98433 16.4833 8.08665 16.6917 8.12811C16.9001 8.16956 17.1161 8.14828 17.3124 8.06696C17.5087 7.98564 17.6765 7.84794 17.7946 7.67126C17.9126 7.49458 17.9757 7.28687 17.9757 7.07438C17.9757 6.93328 17.9479 6.79358 17.8939 6.66323C17.8399 6.53288 17.7607 6.41445 17.661 6.31468C17.5612 6.21491 17.4428 6.13577 17.3124 6.08179C17.1821 6.02779 17.0424 6 16.9013 6Z" fill="white"/>
<path d="M12.0506 8.71311C12.7064 8.71274 13.3476 8.90689 13.893 9.271C14.4385 9.63513 14.8637 10.1528 15.1148 10.7586C15.3659 11.3645 15.4317 12.0312 15.3039 12.6744C15.176 13.3176 14.8603 13.9084 14.3965 14.3722C13.9328 14.8359 13.342 15.1517 12.6988 15.2795C12.0555 15.4074 11.3888 15.3416 10.783 15.0904C10.1772 14.8393 9.65951 14.4141 9.29538 13.8687C8.93128 13.3232 8.73712 12.682 8.73749 12.0262C8.73897 11.148 9.08851 10.3062 9.70953 9.68515C10.3305 9.06413 11.1724 8.71459 12.0506 8.71311ZM12.0506 7.21311C11.0986 7.21497 10.1685 7.49898 9.37792 8.02926C8.58729 8.55955 7.97159 9.31231 7.60865 10.1924C7.24571 11.0725 7.15181 12.0405 7.3388 12.9739C7.52579 13.9074 7.9853 14.7644 8.65925 15.4368C9.3332 16.1092 10.1913 16.5667 11.1252 16.7515C12.0591 16.9363 13.0268 16.8402 13.9061 16.4751C14.7853 16.1102 15.5366 15.4927 16.0651 14.7009C16.5935 13.909 16.8754 12.9782 16.875 12.0262C16.8748 11.3933 16.7497 10.7666 16.507 10.182C16.2644 9.59744 15.9088 9.06646 15.4607 8.61942C15.0127 8.17238 14.4808 7.81806 13.8957 7.57675C13.3105 7.33546 12.6836 7.21188 12.0506 7.21311Z" fill="white"/>
</svg>
