<svg width="24" height="24" viewBox="0 0 24 24" fill="none" xmlns="http://www.w3.org/2000/svg">
<path d="M16.3013 5.74875C16.7941 5.75552 17.2805 5.86144 17.7315 6.06019C18.1824 6.25894 18.5888 6.54647 18.9263 6.90563C18.9263 6.90563 20.3588 6.62437 21.1501 6.0675C21.1501 6.0675 20.9513 7.17 19.6332 8.01375H19.6444C19.7457 8.01375 20.4844 7.995 21.6469 7.45125C21.6469 7.45125 21.4238 8.08687 19.9032 9.29625C19.9951 12.1575 18.5794 17.4469 13.3407 19.3294C12.1901 19.7503 10.9752 19.9678 9.75005 19.9725C7.78724 19.9815 5.86464 19.4164 4.2188 18.3469C4.50005 18.375 4.75317 18.375 5.0063 18.375C8.1038 18.375 9.6038 16.785 9.5213 16.785H9.40692C6.78192 16.785 6.14255 14.2725 6.14255 14.2725C6.35279 14.3996 6.59669 14.4598 6.84193 14.445C7.15889 14.4384 7.4738 14.3924 7.77943 14.3081C4.81692 13.6069 4.92755 10.7644 4.92755 10.7644C5.3279 11.0316 5.79633 11.1786 6.27755 11.1881C6.35671 11.189 6.43578 11.1827 6.5138 11.1694C3.80817 9.02812 5.43755 6.4725 5.43755 6.4725C8.4863 10.0106 12.2344 10.1362 12.7501 10.1362H12.8119C12.5344 8.475 13.2188 6.87937 15.0619 6.01125C15.4464 5.83468 15.8651 5.74506 16.2882 5.74875H16.3013ZM22.8751 3.375L20.4507 5.0775C20.0804 5.29944 19.6801 5.46681 19.2619 5.57437C18.4134 4.91177 17.3704 4.54674 16.2938 4.53562C15.692 4.53006 15.0964 4.65814 14.55 4.91062C12.8288 5.71875 11.7825 7.11375 11.5744 8.78812C9.53671 8.36786 7.70066 7.27177 6.3638 5.6775L5.29505 4.43812L4.4138 5.8125C3.84567 6.74839 3.62034 7.85257 3.7763 8.93625L3.70692 10.7231C3.69136 11.8574 4.06826 12.9623 4.7738 13.8506L4.9613 14.5819C5.23023 15.5262 5.77627 16.3681 6.5288 16.9987C6.02814 17.1083 5.51692 17.1624 5.00442 17.16C4.7813 17.16 4.55067 17.1506 4.31817 17.1319L0.0187988 16.7737L3.49692 19.3294C5.35304 20.5506 7.52825 21.1969 9.75005 21.1875C11.1175 21.1837 12.4739 20.9428 13.7588 20.475C16.3365 19.5551 18.4636 17.6823 19.7026 15.2419C20.5596 13.5754 21.0439 11.7424 21.1219 9.87C22.3651 8.79937 22.7063 8.11687 22.7982 7.85625L23.7582 5.12437L22.4457 5.73562L22.8751 3.375Z" fill="white"/>
</svg>
