<svg width="24" height="24" viewBox="0 0 24 24" fill="none" xmlns="http://www.w3.org/2000/svg">
<path d="M12 3C13.7615 3 15.4834 3.52234 16.9481 4.50097C18.4127 5.47961 19.5542 6.87056 20.2283 8.49797C20.9023 10.1254 21.0787 11.9161 20.7351 13.6438C20.3914 15.3714 19.5433 16.9584 18.2977 18.2039C17.0521 19.4496 15.4652 20.2978 13.7375 20.6413C12.0099 20.985 10.2191 20.8086 8.59172 20.1345C6.96431 19.4604 5.57337 18.3189 4.59473 16.8543C3.61609 15.3897 3.09375 13.6677 3.09375 11.9062C3.09623 9.54493 4.03536 7.28104 5.70507 5.61131C7.37479 3.94161 9.63868 3.00248 12 3ZM12 1.78125C9.99747 1.78125 8.03991 2.37506 6.37485 3.48761C4.7098 4.60016 3.41205 6.18148 2.64572 8.03158C1.87939 9.88168 1.67888 11.9175 2.06955 13.8815C2.46023 15.8456 3.42454 17.6497 4.84054 19.0658C6.25656 20.4818 8.06065 21.4461 10.0247 21.8366C11.9888 22.2274 14.0246 22.0269 15.8747 21.2604C17.7248 20.4941 19.3061 19.1964 20.4186 17.5314C21.5312 15.8663 22.125 13.9088 22.125 11.9062C22.125 9.22093 21.0583 6.6456 19.1595 4.74679C17.2606 2.84799 14.6853 1.78125 12 1.78125Z" fill="#121212"/>
<path d="M16.4212 20.1975C12.733 7.05563 9.04492 3.13501 9.04492 3.13501L16.4212 20.1975Z" fill="white"/>
<path d="M16.4212 20.1975C12.733 7.05563 9.04492 3.13501 9.04492 3.13501" stroke="#121212" stroke-width="1.5" stroke-miterlimit="10"/>
<path d="M2.23877 10.5863C2.23877 10.5863 14.55 11.6981 18.6413 5.46188" stroke="#121212" stroke-width="1.5" stroke-miterlimit="10"/>
<path d="M5.57422 18.75C5.57422 18.75 10.1136 9.62813 21.688 12.4369" stroke="#121212" stroke-width="1.5" stroke-miterlimit="10"/>
</svg>
